<?xml version="1.0" standalone="no"?>
<!DOCTYPE svg PUBLIC "-//W3C//DTD SVG 20010904//EN"
 "http://www.w3.org/TR/2001/REC-SVG-20010904/DTD/svg10.dtd">
<svg version="1.0" xmlns="http://www.w3.org/2000/svg"
 width="290.000000pt" height="174.000000pt" viewBox="0 0 290.000000 174.000000"
 preserveAspectRatio="xMidYMid meet">

<g transform="translate(0.000000,174.000000) scale(0.100000,-0.100000)"
fill="#000000" stroke="none">
<path d="M0 979 l0 -762 158 7 c86 4 167 7 178 7 16 -1 23 7 26 27 5 34 -1 64
-11 57 -5 -2 -6 7 -3 20 3 20 1 24 -12 19 -11 -4 -16 -1 -16 10 0 11 -9 16
-29 16 -65 0 -89 11 -107 48 -9 20 -18 50 -19 67 -1 16 -5 39 -9 50 l-7 20 15
-20 c8 -11 22 -29 31 -40 8 -11 2 7 -13 40 -28 59 -47 120 -56 180 -2 17 -3 4
-2 -28 2 -33 -1 -53 -5 -45 -11 21 -22 128 -13 128 5 0 9 17 10 38 1 62 12 89
39 96 14 4 35 18 47 31 12 14 29 25 37 25 37 1 43 16 45 109 1 70 5 94 16 101
8 5 53 10 100 11 47 1 92 2 100 3 8 2 61 3 117 4 96 2 101 3 96 22 -3 11 0 20
6 20 6 0 11 -4 11 -10 0 -5 9 -10 20 -10 11 0 20 -5 20 -12 0 -6 7 -4 18 5 10
10 21 16 23 15 2 -2 -1 2 -7 7 -6 6 -14 63 -18 130 -9 155 -14 235 -22 313
l-6 62 -379 0 -379 0 0 -761z m475 251 c3 -5 -3 -10 -15 -10 -12 0 -18 5 -15
10 3 6 10 10 15 10 5 0 12 -4 15 -10z"/>
<path d="M816 1693 c12 -82 39 -70 43 20 1 23 -3 27 -25 27 -24 0 -25 -1 -18
-47z"/>
<path d="M1333 1733 c-7 -2 -13 -14 -13 -25 0 -28 34 -19 38 10 3 22 -2 25
-25 15z"/>
<path d="M1396 1703 c3 -21 9 -41 13 -45 11 -13 34 9 35 33 1 18 8 25 29 27
49 6 28 22 -28 22 l-56 0 7 -37z"/>
<path d="M1663 1733 c9 -2 17 -9 17 -14 0 -6 5 -7 10 -4 19 12 10 25 -17 24
-17 -1 -21 -3 -10 -6z"/>
<path d="M1780 1701 c0 -29 -6 -44 -21 -54 -13 -10 -19 -23 -17 -39 3 -20 8
-23 42 -20 28 3 36 1 31 -8 -5 -8 -3 -11 6 -8 18 7 14 59 -6 74 -20 15 -19 58
1 78 14 15 13 16 -10 16 -24 0 -26 -4 -26 -39z"/>
<path d="M1910 1704 l0 -32 35 31 c19 17 35 32 35 34 0 2 -16 3 -35 1 -32 -2
-35 -5 -35 -34z"/>
<path d="M2295 1663 c11 -134 0 -123 118 -124 56 0 122 -4 147 -7 45 -7 45 -7
52 -55 3 -27 9 -76 11 -109 l5 -60 -121 4 c-118 4 -167 16 -167 40 0 6 -18 28
-40 48 -67 62 -170 59 -170 -4 0 -12 -5 -16 -15 -12 -23 9 -18 -18 9 -43 31
-30 48 -90 39 -143 l-7 -43 -12 50 -12 50 0 -40 c-1 -22 3 -76 8 -120 4 -45 4
-87 -1 -95 -6 -11 -8 -11 -9 -2 0 7 -4 11 -9 8 -4 -3 -11 35 -14 84 -4 50 -10
108 -13 130 -5 32 -3 40 8 40 11 0 14 7 10 25 -2 14 -8 27 -12 30 -4 2 -5 -7
-2 -22 3 -18 1 -24 -7 -19 -6 4 -9 11 -7 15 3 4 0 8 -7 9 -120 12 -141 12
-117 1 15 -7 20 -13 13 -16 -7 -3 -13 -18 -13 -34 0 -16 -3 -29 -7 -29 -5 0
-6 -28 -5 -62 2 -34 1 -95 -3 -135 -6 -61 -9 -71 -20 -59 -7 7 -13 21 -12 32
1 11 -3 18 -12 16 -9 -2 -12 4 -8 17 3 11 1 21 -4 23 -5 2 -2 15 5 30 10 19
11 27 3 25 -7 -1 -11 5 -9 13 2 8 4 23 5 32 1 10 7 18 13 18 7 0 15 7 18 16
10 26 7 36 -9 27 -9 -5 -43 -5 -78 0 -170 24 -197 29 -197 38 0 5 -7 9 -15 9
-9 0 -15 10 -15 26 0 14 -4 23 -9 19 -5 -3 -12 -1 -16 5 -10 15 -25 12 -25 -6
0 -9 -5 -14 -11 -12 -6 2 -10 8 -10 13 0 19 -26 24 -62 14 -21 -5 -37 -14 -37
-19 0 -6 -7 -10 -15 -10 -14 0 -41 -38 -37 -52 2 -8 -76 -18 -158 -21 l-55 -2
-11 -45 c-11 -51 -4 -49 -134 -31 -52 8 -119 15 -149 16 -32 1 -56 8 -62 16
-5 9 -9 -17 -9 -70 0 -73 -2 -82 -15 -71 -8 7 -15 19 -15 26 0 24 -54 17 -65
-8 -7 -16 -22 -25 -50 -29 -43 -7 -202 -18 -273 -19 -26 0 -41 -4 -37 -10 4
-6 -7 -10 -25 -10 -27 0 -29 -2 -21 -19 6 -10 7 -21 4 -25 -3 -3 8 -6 26 -6
28 0 32 3 26 21 -5 15 -4 19 5 14 6 -4 10 -18 7 -31 -3 -18 -1 -22 8 -14 8 7
18 4 31 -8 11 -10 25 -17 32 -16 7 1 8 0 2 -3 -5 -2 -10 -11 -10 -19 0 -12 -5
-11 -27 3 -26 17 -26 17 -21 -4 7 -27 -13 -25 -46 6 -13 13 -32 21 -42 19 -22
-4 -27 -34 -8 -52 12 -13 12 -17 0 -29 -16 -16 -11 -56 9 -72 6 -5 15 -23 19
-40 5 -22 4 -26 -4 -15 -7 12 -10 8 -10 -17 0 -25 4 -31 15 -27 14 6 20 -10
16 -43 -1 -8 5 -10 15 -6 11 4 15 3 10 -5 -8 -13 -48 -12 -58 3 -5 6 -8 3 -8
-7 0 -9 4 -19 9 -22 5 -3 12 -21 15 -40 8 -41 51 -79 81 -73 26 4 27 -23 3
-50 -15 -17 -14 -18 19 -20 32 -2 35 0 30 23 -3 16 0 23 7 21 6 -2 11 -19 11
-38 0 -32 -2 -34 -33 -31 -18 1 -41 -2 -50 -8 -13 -8 -11 -9 13 -6 17 2 24 1
18 -1 -16 -5 -16 -6 -2 -37 9 -19 9 -29 0 -39 -12 -15 -7 -37 18 -76 17 -27
22 -59 9 -67 -19 -12 4 -21 49 -19 26 1 36 0 21 -2 -16 -2 -28 -9 -28 -14 0
-6 -3 -8 -7 -6 -5 3 -9 -6 -9 -19 -1 -16 3 -24 15 -24 14 0 14 2 1 10 -13 8
-12 10 3 10 9 0 17 -6 17 -12 0 -10 3 -9 9 1 5 7 14 10 20 7 6 -4 15 3 20 18
9 23 13 24 71 19 49 -5 64 -2 80 12 17 15 31 17 97 11 78 -7 103 -17 103 -42
0 -17 32 -26 65 -18 24 6 25 8 10 17 -12 7 -20 5 -26 -4 -7 -11 -9 -11 -9 2 0
16 11 20 88 33 36 7 39 16 6 17 l-29 1 30 8 c26 7 23 8 -25 11 l-55 2 45 4
c55 5 121 -14 118 -35 -2 -8 11 -19 32 -26 26 -8 35 -17 36 -34 2 -46 9 -47
322 -50 287 -2 344 0 340 16 0 4 2 16 6 27 5 11 10 25 11 32 5 16 67 33 79 22
6 -5 5 -18 -2 -33 -9 -20 -7 -27 10 -45 32 -35 53 -23 56 32 2 30 -1 47 -8 47
-7 0 -4 12 6 30 l18 30 21 -20 c12 -11 31 -20 43 -20 32 0 36 -18 5 -22 -16
-2 -27 -8 -25 -15 1 -7 -2 -13 -7 -13 -5 0 -11 -16 -13 -35 l-4 -35 223 0
c221 0 228 1 225 31 -1 4 -3 18 -6 33 -3 14 -1 24 4 21 5 -3 11 -1 15 5 3 6 0
13 -9 16 -16 6 -11 33 8 46 7 5 7 8 -2 8 -8 0 -10 5 -5 12 14 23 9 33 -22 47
-17 7 -25 15 -18 18 10 3 9 8 -2 20 -21 20 -19 44 5 50 11 3 20 9 20 13 0 4
11 10 25 12 21 4 25 1 25 -17 0 -13 6 -25 14 -28 10 -4 13 -16 9 -38 -3 -19 0
-35 7 -39 9 -6 6 -14 -10 -30 l-23 -23 21 -8 c18 -7 20 -14 16 -59 -2 -28 -8
-60 -14 -70 -10 -20 -6 -20 165 -20 l175 0 0 870 0 870 -305 0 -306 0 6 -77z
m-211 -473 c11 -85 19 -205 13 -200 -3 3 -10 52 -17 110 -6 58 -13 119 -16
135 -3 21 -2 26 4 15 6 -8 12 -35 16 -60z m-474 10 c0 -5 -5 -10 -11 -10 -5 0
-7 5 -4 10 3 6 8 10 11 10 2 0 4 -4 4 -10z m561 -90 c-7 -46 -9 -49 -10 -19
-1 42 12 112 16 89 2 -8 -1 -40 -6 -70z m16 -37 c-3 -10 -5 -4 -5 12 0 17 2
24 5 18 2 -7 2 -21 0 -30z m4 -143 c3 25 6 -13 6 -85 0 -71 -2 -120 -4 -107
-2 12 -9 20 -14 17 -5 -4 -8 55 -7 147 1 131 3 141 8 68 5 -74 6 -79 11 -40z
m-594 58 c-3 -7 -5 -2 -5 12 0 14 2 19 5 13 2 -7 2 -19 0 -25z m1020 -20 c-3
-8 -6 -5 -6 6 -1 11 2 17 5 13 3 -3 4 -12 1 -19z m-516 -77 c1 -40 -2 -75 -5
-78 -3 -4 -6 31 -6 77 0 46 2 81 5 78 3 -2 6 -37 6 -77z m-942 -171 c0 -142
-5 -281 -14 -365 -5 -44 -4 -47 9 -30 8 11 18 17 22 12 4 -4 2 -7 -4 -7 -7 0
-12 -9 -12 -19 0 -24 -19 -38 -30 -22 -4 7 -26 15 -49 18 -29 4 -38 9 -29 14
9 6 5 9 -14 9 -15 0 -30 6 -35 13 -4 6 -9 55 -11 107 l-3 95 61 1 c33 0 66 6
73 13 12 12 -11 13 -173 12 -25 0 -30 3 -20 9 11 7 8 10 -12 10 -16 0 -28 -5
-28 -10 0 -6 -6 -9 -12 -8 -12 3 -14 -6 -17 -72 -1 -20 -3 -22 -11 -10 -5 8
-10 13 -10 10 0 -3 -4 -20 -10 -38 -8 -29 -7 -33 7 -28 14 6 14 4 2 -10 -8
-10 -15 -29 -15 -43 -3 -41 -3 -43 -15 -35 -8 5 -8 1 0 -14 6 -11 11 -30 11
-42 0 -15 5 -20 18 -18 9 2 16 10 14 16 -1 7 4 12 12 12 9 0 13 -10 12 -25 0
-14 -5 -25 -9 -25 -5 0 -15 -7 -24 -15 -8 -9 -18 -13 -22 -9 -3 4 0 9 7 11 21
8 13 22 -10 18 -13 -3 -36 -7 -53 -10 l-30 -6 22 19 c18 16 21 28 19 78 -2 32
1 65 7 72 5 6 6 12 2 12 -4 0 -2 7 5 15 9 11 9 15 1 15 -7 0 -9 5 -6 10 3 6 2
10 -4 10 -5 0 -15 -8 -20 -17 -9 -15 -10 -13 -11 14 0 17 6 33 13 36 9 3 9 10
-2 31 -12 22 -12 28 -1 39 10 10 11 9 5 -1 -5 -11 -3 -11 11 -3 11 5 31 12 47
16 17 3 27 12 27 23 0 10 6 24 13 31 10 10 8 11 -8 6 -18 -6 -18 -5 -2 5 15 9
17 22 12 81 -3 42 -1 69 5 69 6 0 10 6 10 13 1 14 88 57 117 57 23 0 54 14 99
47 17 12 34 20 38 16 3 -3 7 0 7 8 5 50 18 -109 18 -221z m-729 210 c0 -5 -5
-10 -11 -10 -5 0 -7 5 -4 10 3 6 8 10 11 10 2 0 4 -4 4 -10z m119 -25 l31 -35
-35 0 c-33 0 -35 2 -35 35 0 19 2 35 3 35 2 0 18 -16 36 -35z m1069 14 c8 -13
9 -18 2 -14 -11 7 -7 -65 5 -85 3 -6 2 -10 -4 -10 -17 0 -24 20 -26 76 -3 58
3 66 23 33z m989 -44 c-4 -36 -11 -73 -17 -83 -10 -14 -11 -13 -6 8 2 14 8 51
11 83 10 79 19 72 12 -8z m-1920 23 c-3 -8 -6 -5 -6 6 -1 11 2 17 5 13 3 -3 4
-12 1 -19z m1463 -36 c0 -5 -7 -9 -15 -9 -8 0 -12 4 -9 9 3 4 9 8 15 8 5 0 9
-4 9 -8z m-210 -47 c0 -14 -4 -25 -9 -25 -4 0 -6 11 -3 25 2 14 6 25 8 25 2 0
4 -11 4 -25z m-1585 -15 c8 -13 -5 -13 -25 0 -13 8 -13 10 2 10 9 0 20 -4 23
-10z m1275 -70 c0 -38 -4 -70 -8 -70 -5 0 -7 20 -5 45 2 26 -1 45 -7 45 -5 0
-10 9 -10 21 0 11 5 17 10 14 6 -3 10 -1 10 4 0 6 2 11 5 11 3 0 5 -31 5 -70z
m488 22 c9 2 20 10 24 18 11 24 9 -61 -2 -99 -5 -19 -7 -37 -4 -40 2 -3 7 5
11 18 4 17 8 20 15 9 7 -9 8 -7 4 7 -3 11 -2 34 2 50 l8 30 7 -33 c5 -24 1
-44 -13 -70 -10 -20 -19 -33 -20 -28 0 5 -10 -3 -21 -18 -12 -15 -23 -25 -26
-22 -3 3 -15 -7 -27 -20 l-21 -25 0 31 c0 21 4 29 13 25 14 -5 34 34 46 90 5
23 4 27 -4 15 -9 -11 -10 -7 -6 20 5 31 5 32 -4 11 -6 -14 -16 -31 -22 -38 -8
-11 -7 -12 6 -7 24 9 19 -9 -9 -36 -20 -19 -30 -22 -43 -14 -17 11 -44 96 -39
129 1 11 11 -13 22 -53 17 -66 21 -71 33 -55 7 10 10 29 7 43 -4 17 -3 21 3
11 12 -17 18 -7 28 54 6 39 9 44 12 22 2 -19 8 -27 20 -25z m-404 23 c3 -8 1
-15 -4 -15 -6 0 -10 7 -10 15 0 8 2 15 4 15 2 0 6 -7 10 -15z m-1384 -10 c0
-8 -2 -15 -4 -15 -2 0 -6 7 -10 15 -3 8 -1 15 4 15 6 0 10 -7 10 -15z m470
-30 c0 -5 -5 -3 -10 5 -5 8 -10 20 -10 25 0 6 5 3 10 -5 5 -8 10 -19 10 -25z
m-312 -1 c7 -14 17 -22 23 -18 6 3 15 0 20 -7 6 -9 7 -2 3 19 -6 27 -4 31 10
26 11 -4 16 -16 14 -39 -1 -21 -6 -31 -14 -28 -7 2 -15 -1 -20 -8 -5 -9 -9 -7
-15 7 -6 16 -8 15 -8 -7 -1 -15 -8 -30 -17 -33 -14 -5 -15 -4 -4 9 10 12 9 15
-5 15 -12 0 -16 6 -12 20 3 11 1 20 -4 20 -5 0 -10 -7 -10 -15 -3 -28 -4 -33
-11 -41 -5 -4 -8 0 -8 8 0 9 -7 18 -15 22 -9 3 -12 12 -8 21 5 13 7 14 14 3 5
-7 9 -8 9 -3 0 12 32 55 41 55 3 0 11 -12 17 -26z m1503 -127 c-8 -8 -11 2
-10 39 l1 49 10 -38 c7 -28 7 -42 -1 -50z m-1394 51 c-3 -8 -6 -5 -6 6 -1 11
2 17 5 13 3 -3 4 -12 1 -19z m157 6 c3 -8 2 -12 -4 -9 -6 3 -10 10 -10 16 0
14 7 11 14 -7z m-271 -41 c-7 -2 -19 -2 -25 0 -7 3 -2 5 12 5 14 0 19 -2 13
-5z m1457 -16 c0 -12 -66 -38 -75 -29 -7 8 57 52 66 46 5 -3 9 -11 9 -17z
m607 -9 c-3 -7 -5 -2 -5 12 0 14 2 19 5 13 2 -7 2 -19 0 -25z m-511 -57 c-17
-18 -76 -35 -76 -21 0 4 16 15 35 26 19 10 35 23 35 28 0 6 5 5 12 -2 9 -9 7
-16 -6 -31z m-848 -76 c-2 -70 -6 -95 -16 -95 -7 0 -10 -5 -6 -12 4 -7 3 -8
-5 -4 -6 4 -8 12 -5 18 4 6 9 31 11 57 7 77 15 131 20 131 2 0 3 -43 1 -95z
m779 79 c-3 -3 -12 -4 -19 -1 -8 3 -5 6 6 6 11 1 17 -2 13 -5z m13 -54 c0 -5
-2 -10 -4 -10 -3 0 -8 5 -11 10 -3 6 -1 10 4 10 6 0 11 -4 11 -10z m38 -71
c-20 -13 -29 23 -9 39 14 11 16 10 19 -9 2 -12 -2 -25 -10 -30z m-1146 18 c3
-13 1 -32 -3 -43 -5 -13 -8 -7 -8 24 -1 46 4 55 11 19z m1098 -32 c0 -9 6 -12
18 -9 14 5 14 4 2 -4 -8 -6 -17 -9 -20 -7 -3 2 -17 -6 -30 -17 l-25 -20 30 6
c17 2 37 0 45 -6 12 -8 12 -9 -2 -4 -10 3 -28 1 -40 -4 -13 -5 -18 -9 -11 -9
7 -1 10 -8 7 -16 -3 -8 1 -27 9 -44 13 -26 13 -30 -4 -45 -11 -9 -19 -11 -19
-6 0 6 -26 10 -57 11 -32 0 -74 6 -93 13 -32 12 -33 14 -15 23 11 6 44 16 74
23 46 11 52 15 38 25 -15 11 -14 13 11 25 25 12 26 13 7 20 -11 5 -35 6 -54 3
-32 -6 -33 -5 -16 15 15 17 22 18 47 10 31 -11 78 2 78 22 0 5 5 10 10 10 6 0
10 -7 10 -15z m-1120 -55 c0 -5 -4 -10 -10 -10 -5 0 -10 5 -10 10 0 6 5 10 10
10 6 0 10 -4 10 -10z m28 -25 c-3 -3 -9 2 -12 12 -6 14 -5 15 5 6 7 -7 10 -15
7 -18z m432 -4 c20 -6 22 -9 10 -16 -12 -8 -9 -11 15 -17 43 -10 -47 -1 -102
10 -37 8 -42 7 -51 -12 l-11 -21 0 22 c-1 12 7 27 17 32 19 12 84 13 122 2z
m70 -12 c0 -5 -9 -9 -20 -9 -19 0 -26 11 -14 23 8 8 34 -3 34 -14z m640 6 c0
-12 -19 -12 -23 0 -4 9 -1 12 9 8 7 -3 14 -7 14 -8z m-477 -6 c19 -11 23 -39
5 -39 -6 0 -22 10 -35 22 -20 19 -27 20 -43 10 -15 -9 -26 -9 -51 2 -32 13
-31 14 37 14 38 0 77 -4 87 -9z m53 -26 c-10 -10 -19 5 -10 18 6 11 8 11 12 0
2 -7 1 -15 -2 -18z m-118 -10 c-10 -2 -26 -2 -35 0 -10 3 -2 5 17 5 19 0 27
-2 18 -5z m565 -23 c3 -13 0 -20 -8 -20 -11 0 -13 14 -6 38 3 8 9 -1 14 -18z
m-1325 -41 c-2 -23 -6 -25 -38 -23 -19 2 -50 3 -67 3 -29 1 -33 4 -31 26 2 25
8 29 63 38 11 1 32 -2 47 -7 22 -8 28 -16 26 -37z m383 39 c0 -10 2 -10 6 0
11 27 23 -2 23 -54 0 -40 -3 -54 -12 -51 -7 2 -12 10 -10 16 2 12 -15 15 -65
12 -24 -2 -33 2 -33 13 0 8 -8 20 -17 26 -14 8 -14 10 -3 9 8 -1 42 -1 75 0
l60 2 -32 14 c-38 16 -42 25 -13 25 11 0 20 -6 21 -12z m1319 2 c0 -11 -72
-17 -101 -9 -21 5 -20 7 11 10 61 7 90 6 90 -1z m-415 -10 c-3 -5 -10 -10 -16
-10 -5 0 -9 5 -9 10 0 6 7 10 16 10 8 0 12 -4 9 -10z m-400 -23 c10 -8 15 -19
11 -25 -10 -16 -36 -15 -36 1 0 8 -4 7 -10 -3 -9 -13 -12 -13 -24 3 -13 17
-14 17 -21 0 -10 -22 -12 -29 -14 -45 0 -6 -8 -3 -16 8 -13 17 -12 21 12 41
20 16 31 19 40 11 9 -7 14 -6 19 6 7 20 15 20 39 3z m791 -7 c26 0 27 -1 18
-24 -5 -12 -20 -16 -60 -16 -30 0 -54 2 -54 4 0 2 -3 11 -6 20 -5 12 1 16 24
16 17 0 34 5 38 12 6 9 9 9 12 0 2 -7 15 -12 28 -12z m-1531 -6 c11 -1 23 -3
28 -3 16 -2 6 -21 -12 -21 -21 0 -44 -23 -34 -34 4 -4 -1 -4 -11 0 -16 6 -17
8 -2 16 18 10 22 38 6 38 -5 0 -10 -4 -10 -9 0 -4 -12 -6 -27 -4 -22 4 -25 2
-13 -6 12 -8 11 -10 -7 -8 l-23 1 22 23 c15 16 28 21 42 16 12 -3 30 -7 41 -9z
m328 -15 c8 -30 -24 -19 -35 12 -5 13 -2 16 12 12 10 -3 20 -13 23 -24z m512
10 c5 -6 2 -9 -9 -9 -9 0 -25 7 -34 16 -15 15 -14 16 8 9 14 -4 29 -11 35 -16z
m-50 -7 c-3 -3 -11 0 -18 7 -9 10 -8 11 6 5 10 -3 15 -9 12 -12z m292 -15
c-15 -5 -27 -14 -27 -20 0 -7 -4 -6 -10 3 -11 18 25 41 49 32 11 -4 7 -8 -12
-15z m-1202 3 c3 -5 1 -10 -4 -10 -6 0 -11 5 -11 10 0 6 2 10 4 10 3 0 8 -4
11 -10z m492 -28 c-14 -17 -22 0 -12 26 5 14 7 14 15 2 5 -9 4 -20 -3 -28z
m169 17 c-8 -12 -12 -28 -9 -35 3 -8 2 -14 -1 -14 -4 0 -10 10 -15 23 -7 17
-4 25 13 34 29 17 29 16 12 -8z m639 11 c3 -5 1 -10 -4 -10 -6 0 -11 5 -11 10
0 6 2 10 4 10 3 0 8 -4 11 -10z m-185 -10 c0 -5 -2 -10 -4 -10 -3 0 -8 5 -11
10 -3 6 -1 10 4 10 6 0 11 -4 11 -10z m-696 -15 c-4 -8 -8 -15 -10 -15 -2 0
-4 7 -4 15 0 8 4 15 10 15 5 0 7 -7 4 -15z m145 -11 c-9 -11 -15 -12 -23 -4
-8 8 -7 13 4 20 20 12 33 1 19 -16z m-572 10 c-3 -3 -12 -4 -19 -1 -8 3 -5 6
6 6 11 1 17 -2 13 -5z m808 -4 c-3 -5 -12 -10 -18 -10 -7 0 -6 4 3 10 19 12
23 12 15 0z m399 -6 c24 -9 9 -24 -25 -24 -32 0 -40 16 -11 23 9 3 18 5 19 6
1 0 8 -2 17 -5z m56 2 c0 -2 -7 -7 -16 -10 -8 -3 -12 -2 -9 4 6 10 25 14 25 6z
m-1420 -20 c0 -3 -4 -8 -10 -11 -5 -3 -10 -1 -10 4 0 6 5 11 10 11 6 0 10 -2
10 -4z m905 -6 c3 -5 1 -10 -4 -10 -6 0 -11 5 -11 10 0 6 2 10 4 10 3 0 8 -4
11 -10z m-325 -10 c0 -5 -2 -10 -4 -10 -3 0 -8 5 -11 10 -3 6 -1 10 4 10 6 0
11 -4 11 -10z m-220 -20 c0 -5 -4 -10 -10 -10 -5 0 -10 5 -10 10 0 6 5 10 10
10 6 0 10 -4 10 -10z m296 -47 c-10 -10 -19 5 -10 18 6 11 8 11 12 0 2 -7 1
-15 -2 -18z m174 11 c0 -24 -29 -28 -49 -7 -18 19 -18 20 15 21 24 1 34 -3 34
-14z"/>
<path d="M860 610 c0 -5 5 -10 10 -10 6 0 10 5 10 10 0 6 -4 10 -10 10 -5 0
-10 -4 -10 -10z"/>
<path d="M608 233 c7 -3 16 -2 19 1 4 3 -2 6 -13 5 -11 0 -14 -3 -6 -6z"/>
<path d="M1673 1590 c-8 -18 -7 -29 1 -39 9 -12 12 -11 14 7 2 12 2 30 -1 40
-3 14 -6 12 -14 -8z"/>
<path d="M806 1567 c3 -10 9 -15 12 -12 3 3 0 11 -7 18 -10 9 -11 8 -5 -6z"/>
<path d="M2108 1513 c34 -2 88 -2 120 0 31 2 3 3 -63 3 -66 0 -92 -1 -57 -3z"/>
<path d="M1864 1366 c-3 -13 -4 -36 -2 -52 2 -22 9 -28 33 -31 25 -3 27 -1 13
7 -22 13 -23 53 -3 73 16 17 10 27 -16 27 -11 0 -21 -10 -25 -24z"/>
<path d="M1970 1370 c-19 -4 -31 -8 -26 -9 5 0 3 -7 -3 -15 -10 -12 -1 -15 57
-18 l69 -3 -7 25 c-7 28 -31 33 -90 20z"/>
<path d="M160 724 c0 -25 29 -56 31 -33 1 8 1 17 0 22 0 4 4 7 10 7 7 0 9 -17
6 -47 -3 -34 2 -62 20 -107 36 -89 44 -89 15 -1 -21 65 -23 78 -11 86 8 5 9 9
3 9 -7 0 -10 15 -9 39 3 38 1 39 -31 43 -29 3 -34 1 -34 -18z"/>
<path d="M170 646 c0 -22 20 -70 26 -63 8 8 -7 77 -17 77 -5 0 -9 -6 -9 -14z"/>
<path d="M320 609 c0 -5 5 -7 10 -4 6 3 10 8 10 11 0 2 -4 4 -10 4 -5 0 -10
-5 -10 -11z"/>
<path d="M201 559 c-1 -8 6 -24 15 -35 15 -19 15 -19 6 1 -5 11 -12 27 -15 35
-5 13 -6 13 -6 -1z"/>
<path d="M250 446 c0 -2 8 -10 18 -17 15 -13 16 -12 3 4 -13 16 -21 21 -21 13z"/>
<path d="M295 438 c3 -7 19 -22 35 -33 17 -11 30 -23 30 -27 0 -5 4 -8 9 -8 5
0 4 11 -2 24 -7 13 -15 23 -18 20 -4 -2 -17 5 -29 16 -27 23 -31 25 -25 8z"/>
<path d="M402 290 c0 -14 2 -19 5 -12 2 6 2 18 0 25 -3 6 -5 1 -5 -13z"/>
<path d="M66 153 c-3 -3 -19 -6 -36 -5 -20 0 -30 -4 -30 -14 0 -8 8 -14 18
-15 22 0 74 -6 87 -9 29 -7 105 1 100 10 -3 6 1 10 9 10 9 0 16 4 16 9 0 4
-27 6 -59 4 -32 -3 -68 0 -79 6 -10 6 -22 8 -26 4z"/>
<path d="M35 101 c-11 -5 -23 -7 -27 -4 -5 2 -8 -1 -8 -7 0 -7 7 -9 16 -6 9 3
24 6 35 6 10 0 19 5 19 10 0 12 -7 12 -35 1z"/>
<path d="M190 65 c-14 -8 -20 -14 -15 -14 6 0 21 6 35 14 14 8 21 14 15 14 -5
0 -21 -6 -35 -14z"/>
<path d="M7 43 c7 -2 19 -2 26 0 6 3 1 5 -13 5 -14 0 -19 -2 -13 -5z"/>
<path d="M125 40 c-13 -6 -15 -9 -5 -9 8 0 22 4 30 9 18 12 2 12 -25 0z"/>
<path d="M551 36 c-66 -14 -76 -31 -21 -34 30 -2 40 1 40 13 0 8 5 15 10 15 6
0 10 -5 10 -11 0 -6 7 -4 15 5 16 16 20 27 8 25 -5 -1 -32 -7 -62 -13z"/>
<path d="M920 25 c0 -8 9 -15 20 -15 12 0 20 7 20 18 0 14 -2 15 -10 2 -6 -10
-10 -11 -10 -2 0 6 -4 12 -10 12 -5 0 -10 -7 -10 -15z"/>
</g>
</svg>
